PathFileType	4	(X/Y/Z)	C:\Users\Basilio\Documents\Thesis Gigler\squatting_fais\c3dfiles\077\SLS_back_pre3\markers_experimental.trc
DataRate	CameraRate	NumFrames	NumMarkers	Units	OrigDataRate	OrigDataStartFrame	OrigNumFrames
200.000000	200.000000	4	60	mm	200.000000	1431	1636
Frame#	Time	FHD			LBHD			RBHD			C7			T10			CLAV			LSHO			LUUPA			LMUPA			LDUPA			LLEP			LMEP			LRAD			LUL			LRFIN			RSHO			RUPA1			RMUPA			RDUPA			RLEP			RMEP			RRAD			RUL			RUFIN			LASI			RASI			USACR			LSACR			RSACR			LTHI1			LTHI2			LTHI3			LTHI4			LLFC			LMFC			LTIB1			LTIB2			LTIB3			LTIB4			LLMAL			LHEE			LMT1			LMT2			LMT5			RTHI			RTHI2			RTHI3			RTHI4			RLFC			RMFC			RTIB1			RTIB2			RTIB3			RTIB4			RLMAL			RMMAL			RHEE			RMT1			RMT2			RMT5			
		X1	Y1	Z1	X2	Y2	Z2	X3	Y3	Z3	X4	Y4	Z4	X5	Y5	Z5	X6	Y6	Z6	X7	Y7	Z7	X8	Y8	Z8	X9	Y9	Z9	X10	Y10	Z10	X11	Y11	Z11	X12	Y12	Z12	X13	Y13	Z13	X14	Y14	Z14	X15	Y15	Z15	X16	Y16	Z16	X17	Y17	Z17	X18	Y18	Z18	X19	Y19	Z19	X20	Y20	Z20	X21	Y21	Z21	X22	Y22	Z22	X23	Y23	Z23	X24	Y24	Z24	X25	Y25	Z25	X26	Y26	Z26	X27	Y27	Z27	X28	Y28	Z28	X29	Y29	Z29	X30	Y30	Z30	X31	Y31	Z31	X32	Y32	Z32	X33	Y33	Z33	X34	Y34	Z34	X35	Y35	Z35	X36	Y36	Z36	X37	Y37	Z37	X38	Y38	Z38	X39	Y39	Z39	X40	Y40	Z40	X41	Y41	Z41	X42	Y42	Z42	X43	Y43	Z43	X44	Y44	Z44	X45	Y45	Z45	X46	Y46	Z46	X47	Y47	Z47	X48	Y48	Z48	X49	Y49	Z49	X50	Y50	Z50	X51	Y51	Z51	X52	Y52	Z52	X53	Y53	Z53	X54	Y54	Z54	X55	Y55	Z55	X56	Y56	Z56	X57	Y57	Z57	X58	Y58	Z58	X59	Y59	Z59	X60	Y60	Z60	

1432	7.155	-201.2574920654297	1849.928955078125	-1065.020629882813	-355.6365051269532	1758.444702148438	-1129.28076171875	-358.4522399902344	1758.30859375	-983.0603027343752	-408.6348266601564	1606.772827148438	-1059.962524414063	-414.5584411621095	1276.656494140625	-1018.66552734375	-243.9256591796876	1565.250854492188	-1057.223022460938	-286.5068054199219	1590.07275390625	-1230.25927734375	-129.6964416503907	1541.316284179688	-1341.800048828125	-100.4669189453125	1575.250610351563	-1319.1455078125	-62.26535797119142	1543.287353515625	-1354.4208984375	2.704774618148804	1556.270141601563	-1354.437377929688	13.54963302612305	1485.859008789063	-1329.806030273438	298.7590942382813	1599.760986328125	-1247.210693359375	301.6765747070313	1600.151123046875	-1327.478881835938	398.6575317382814	1620.145629882813	-1260.488159179688	-272.5320129394532	1613.655395507813	-895.2230224609377	-127.8198928833008	1578.841796875	-767.8748168945314	-98.75381469726565	1605.716552734375	-797.169616699219	-58.46310043334962	1581.057495117188	-757.5685424804689	7.85987424850464	1588.457275390625	-761.0924072265626	16.3671989440918	1514.379760742188	-786.3027954101565	292.5711975097657	1617.795532226563	-847.4058837890627	303.7816772460938	1629.728515625	-771.190856933594	388.2819824218751	1645.760131835938	-850.285827636719	-241.1800231933594	1057.178466796875	-1136.167602539063	-238.2837219238282	1095.370849609375	-856.3820800781252	-429.8618469238282	1181.246215820313	-1006.179382324219	-438.816864013672	1151.3544921875	-1033.81982421875	-441.2619628906251	1151.208984375	-978.1138305664065	-330.9494018554688	855.3715820312502	-1180.346313476563	-309.4573974609376	773.8980712890627	-1178.845092773438	-259.8830566406251	771.603210449219	-1178.678955078125	-338.6309509277344	726.6696166992189	-1155.745727539063	-322.8241577148438	577.7969970703126	-1131.994262695313	-302.8898925781251	558.8080444335939	-998.9002075195315	-283.4976806640626	358.0451354980469	-1062.02001953125	-317.4082336425782	310.9936828613282	-1130.852661132813	-284.4139099121094	310.6498413085938	-1097.589111328125	-286.7098693847657	232.0940856933594	-1064.838989257813	-346.3035888671876	108.5436782836914	-1100.670288085938	-397.6719055175782	80.73418426513673	-1046.796264648438	-188.0749816894532	58.0447235107422	-1024.856323242188	-182.4061584472657	58.11514282226564	-1068.007690429688	-314.9367065429688	127.116439819336	-1019.288391113281	-351.2902832031251	772.0838012695315	-774.179626464844	-317.6560058593751	714.0368652343751	-763.0180664062501	-283.6432495117188	712.2204589843751	-766.8154907226564	-349.2041931152344	639.3887329101564	-773.7006835937502	-346.7360534667969	571.7483520507814	-765.7832641601564	-315.2994995117188	538.0914916992189	-890.6870727539065	-296.7689514160157	435.4813842773439	-763.9757690429689	-360.7093200683594	360.1087951660157	-722.4076538085939	-316.9089050292969	354.0817871093751	-740.8880615234376	-310.3677673339844	305.2893371582032	-773.847351074219	-376.8688659667969	129.0657958984375	-712.8573608398439	-344.5822143554688	127.8863601684571	-800.5500488281252	-436.8846740722657	92.56442260742189	-767.2630004882814	-215.4421844482422	60.6704444885254	-752.4030151367189	-219.4377746582032	63.66742324829103	-712.7048339843751	-240.4458465576172	45.94054031372071	-665.8941650390626	
1433	7.16	-201.198959350586	1849.92578125	-1063.963012695313	-355.4805908203126	1758.400512695313	-1128.136596679688	-358.5555114746094	1757.851440429688	-982.0720825195315	-408.7229309082032	1606.828979492188	-1058.930297851563	-414.2321777343751	1276.79296875	-1017.848754882813	-244.1257019042969	1565.201049804688	-1056.19091796875	-286.4830322265626	1590.08642578125	-1229.212158203125	-130.0586395263672	1541.362670898438	-1341.044555664063	-100.6356582641602	1575.2177734375	-1318.447387695313	-62.41043090820314	1543.133178710938	-1353.792602539063	2.701012372970581	1556.033081054688	-1353.931762695313	13.28763866424561	1485.814086914063	-1329.293212890625	298.5313110351563	1599.521850585938	-1246.732421875	301.5261535644532	1599.884399414063	-1327.072875976563	398.4397888183595	1619.898681640625	-1260.210083007813	-272.3152160644532	1613.628173828125	-894.1496582031252	-127.751335144043	1578.4384765625	-767.0184936523439	-98.61490631103518	1605.4912109375	-796.1921997070315	-58.3677215576172	1580.730590820313	-756.5942382812501	8.050146102905275	1587.954833984375	-760.3012695312501	16.51062965393067	1514.032470703125	-785.509216308594	292.7315673828126	1618.361694335938	-847.389587402344	304.3149719238282	1629.639282226563	-770.2109375000002	388.3411560058595	1645.12646484375	-849.749206542969	-240.9542236328126	1057.401977539063	-1135.6650390625	-238.1475677490235	1095.452392578125	-855.6235351562502	-429.6429443359376	1181.382446289063	-1005.545166015625	-438.5957031250001	1151.2265625	-1033.119140625	-441.2019348144532	1151.027709960938	-977.4368896484377	-331.0269165039063	855.699645996094	-1179.69384765625	-309.3818969726563	774.0532226562502	-1178.611694335938	-259.6323547363282	771.6766357421877	-1178.141357421875	-338.5413513183594	726.7249755859376	-1155.150268554688	-322.8079833984376	577.8250732421876	-1131.442626953125	-303.3689880371094	558.6081542968751	-998.2806396484377	-283.5528564453126	357.3002624511719	-1062.04345703125	-316.4963989257813	310.7564392089844	-1130.263305664063	-284.5552062988282	310.6366271972657	-1097.268920898438	-286.6921081542969	232.0599975585938	-1064.611694335938	-346.2660522460938	108.5195846557617	-1100.572143554688	-397.6149902343751	80.68126678466798	-1046.7734375	-188.0965881347657	58.05030059814455	-1024.845581054688	-182.7117767333985	57.86500930786134	-1068.049194335938	-314.9365234375001	127.1302337646485	-1019.209106445313	-352.4702758789063	772.0821533203127	-774.195739746094	-319.1992492675782	713.9207153320314	-762.6288452148439	-284.9938049316407	712.3211059570314	-766.0054321289064	-350.6184692382813	639.6322021484376	-773.6037597656252	-348.1241760253907	571.8115844726564	-765.7238769531251	-315.9843139648438	538.3390502929689	-890.4794921875002	-297.8147888183594	435.739227294922	-763.4503173828126	-361.7219848632813	360.0243530273438	-722.2847900390626	-317.8934936523438	354.0351257324219	-740.6389770507814	-311.0909423828126	305.0634155273438	-773.747253417969	-376.9551086425782	129.103988647461	-712.7750244140626	-344.6910400390626	128.0334930419922	-800.4556274414065	-436.8371582031251	92.53924560546876	-767.2216796875001	-215.4245300292969	60.62035369873048	-752.2828369140626	-219.4835815429688	63.56804656982423	-712.6758422851564	-240.4668426513672	45.84334564208985	-665.8073730468751	
1434	7.165	-200.9443511962891	1850.057250976563	-1062.711547851563	-355.1498718261719	1758.504760742188	-1126.938598632813	-358.3984069824219	1757.886596679688	-980.9680786132815	-408.6688537597657	1606.96142578125	-1057.831298828125	-414.087615966797	1276.811645507813	-1017.068298339844	-244.4750366210938	1565.418701171875	-1055.0078125	-286.6647644042969	1590.191040039063	-1228.239501953125	-130.4371032714844	1541.271240234375	-1340.260864257813	-100.9232177734375	1575.054565429688	-1317.659790039063	-62.66368484497072	1542.939819335938	-1352.89794921875	2.377467870712281	1555.901245117188	-1353.237182617188	13.01397895812989	1485.54638671875	-1328.628051757813	298.3611145019532	1599.357177734375	-1246.439086914063	300.5766601562501	1599.816284179688	-1326.812377929688	398.1362609863282	1619.574462890625	-1259.887084960938	-272.1575622558594	1613.559326171875	-892.9687500000002	-127.6158523559571	1578.108154296875	-765.8002319335939	-98.39099121093753	1605.23095703125	-795.2293701171877	-58.23960494995119	1580.481079101563	-755.7717895507814	8.205801963806154	1587.450317382813	-759.4457397460939	16.59403419494629	1513.633056640625	-784.7156982421877	292.5146484375001	1616.941040039063	-846.4167480468752	304.3531799316407	1629.322387695313	-769.698669433594	388.4053039550782	1644.867797851563	-849.157897949219	-240.5530242919922	1057.309692382813	-1134.687133789063	-237.9318084716797	1095.52001953125	-854.9229125976565	-429.3606872558595	1181.38232421875	-1004.963073730469	-438.6011047363282	1151.229614257813	-1032.495239257813	-440.8711547851564	1151.197265625	-976.816589355469	-330.7998352050782	855.916931152344	-1179.197265625	-309.2654724121094	774.383483886719	-1178.14306640625	-259.5873107910157	771.5908813476565	-1177.511474609375	-338.4346618652344	726.7880249023439	-1154.569091796875	-323.0021362304688	577.9118041992189	-1131.010986328125	-303.7729187011719	558.5356445312501	-997.7290649414065	-283.7019653320313	357.3606872558594	-1061.828002929688	-317.8681640625001	311.0340881347657	-1130.010986328125	-284.5854797363282	310.6748046875001	-1097.102294921875	-286.8210144042969	232.1620178222657	-1064.465576171875	-346.2710266113282	108.7157592773438	-1100.52685546875	-397.6487731933595	80.74217987060548	-1046.70703125	-188.0741882324219	58.05493545532228	-1024.838989257813	-182.5192260742188	58.22975540161134	-1068.035888671875	-314.9545593261719	127.0733795166016	-1019.137451171875	-353.5456237792969	772.0828247070315	-774.1282958984377	-320.5036010742188	714.3645019531251	-762.0465698242189	-286.3132934570313	712.1271972656251	-765.2225952148439	-352.0099487304688	639.7937622070314	-773.461608886719	-349.4476623535157	571.8659057617189	-765.5489501953126	-316.3900146484376	538.5517578125001	-890.268981933594	-299.0745849609376	435.598602294922	-763.2786254882814	-362.6029357910157	360.2076721191407	-722.1657714843751	-318.8927001953126	353.9154968261719	-740.3624267578126	-311.6101684570313	305.1417236328126	-773.3696899414065	-377.0952758789063	129.1087188720703	-712.7335815429689	-344.6779174804688	128.0467987060547	-800.362976074219	-436.8779602050782	92.55586242675783	-767.1960449218751	-215.5130920410157	60.50100708007814	-752.3575439453126	-219.5350341796876	63.55299377441408	-712.5881958007814	-240.5341796875001	45.79293060302735	-665.7448120117189	
1435	7.17	-200.2590332031251	1849.161865234375	-1061.446411132813	-355.0696411132813	1758.5166015625	-1126.032348632813	-358.3752441406251	1758.053100585938	-979.9187622070315	-408.6069335937501	1607.046142578125	-1056.76318359375	-414.051239013672	1276.731689453125	-1016.316223144531	-244.538558959961	1565.372436523438	-1054.15185546875	-286.9703979492188	1590.126342773438	-1227.362060546875	-130.5787353515625	1541.109008789063	-1339.384765625	-101.0083465576172	1575.08056640625	-1316.9501953125	-62.86095428466798	1542.7724609375	-1352.13818359375	2.091334819793702	1555.867797851563	-1352.601196289063	12.83232307434082	1485.23046875	-1327.979858398438	298.0480651855469	1599.20361328125	-1246.177612304688	300.4198608398438	1599.580810546875	-1326.50537109375	397.975799560547	1619.368774414063	-1259.562377929688	-271.9465332031251	1613.278076171875	-891.8284301757815	-127.3573303222657	1577.78515625	-764.7807006835939	-98.358512878418	1604.803466796875	-794.2495117187502	-58.06309890747072	1579.940795898438	-754.7039184570314	8.400012016296388	1587.281005859375	-758.2645874023439	16.66465950012207	1513.138305664063	-783.6591796875002	292.4385986328126	1616.605712890625	-845.9796142578127	304.5303039550782	1628.80078125	-769.1251220703127	388.5670166015626	1644.181762695313	-848.6260986328127	-240.2962188720704	1057.570922851563	-1133.922729492188	-237.6669616699219	1095.474609375	-854.0044555664065	-429.1309509277345	1181.295776367188	-1004.304992675781	-435.8535156250001	1150.8837890625	-1032.186889648438	-439.6658935546876	1151.511596679688	-976.3016357421877	-330.4698791503907	855.829772949219	-1178.924926757813	-309.2061462402344	774.392028808594	-1177.343872070313	-260.7882385253907	771.8421020507815	-1177.20263671875	-338.6523437500001	726.9457397460939	-1153.991088867188	-323.2503662109376	577.9661254882814	-1130.499267578125	-304.1822814941407	558.5314941406251	-997.1612548828127	-283.0982055664063	357.9906311035157	-1061.108032226563	-318.0270690917969	311.2773132324219	-1129.646118164063	-284.7603759765626	310.7864990234376	-1096.878051757813	-286.8622131347657	232.1929779052735	-1064.19287109375	-346.4102172851563	108.8122940063477	-1100.489868164063	-397.6342163085939	80.72814178466798	-1046.683837890625	-188.0953979492188	58.09389877319337	-1024.842407226563	-182.5677490234375	58.26513290405275	-1068.044311523438	-314.9133605957032	127.0656661987305	-1019.105529785156	-354.4545593261719	772.241638183594	-773.8438720703127	-321.6353149414063	714.1491088867189	-761.6037597656251	-287.5709228515626	712.3306274414064	-764.2646484375001	-353.1694030761719	639.9521484375001	-773.3647460937502	-350.8850402832032	571.9091186523439	-765.3394775390626	-316.7424926757813	538.7627563476564	-890.0078735351565	-299.9535827636719	435.5659484863282	-763.0841064453126	-363.6224060058594	359.8311767578126	-721.9844360351564	-320.0472412109376	354.2621765136719	-740.2343750000001	-312.1398010253907	305.2189636230469	-773.067321777344	-377.2425842285157	128.9908599853516	-712.6945190429689	-344.7324829101563	128.1004943847657	-800.2874755859377	-436.8981018066407	92.47209930419923	-767.1683349609376	-215.5213165283204	60.46139907836915	-752.3048095703126	-219.5247955322266	63.52816009521486	-712.5457763671876	-240.5275421142579	45.74421310424805	-665.6715698242189	
